<svg width="138" height="41" viewBox="0 0 138 41" fill="none" xmlns="http://www.w3.org/2000/svg">
<path d="M0 3.84375C0 3.50394 0.112864 3.17805 0.313764 2.93777C0.514664 2.69749 0.787143 2.5625 1.07126 2.5625H4.28503C4.52399 2.56258 4.75606 2.65821 4.94435 2.83419C5.13264 3.01017 5.26632 3.25638 5.32415 3.53369L6.19187 7.6875H31.0665C31.2238 7.68767 31.3791 7.72928 31.5214 7.80935C31.6638 7.88942 31.7896 8.006 31.89 8.15081C31.9905 8.29562 32.063 8.46509 32.1025 8.6472C32.1419 8.82931 32.1474 9.01958 32.1185 9.2045L28.9047 29.7045C28.8587 29.9981 28.7284 30.2633 28.5364 30.4542C28.3443 30.6451 28.1025 30.7497 27.8527 30.75H8.57006C8.32031 30.7497 8.0785 30.6451 7.88641 30.4542C7.69432 30.2633 7.56404 29.9981 7.51809 29.7045L4.30646 9.24294L3.44945 5.125H1.07126C0.787143 5.125 0.514664 4.99001 0.313764 4.74973C0.112864 4.50945 0 4.18356 0 3.84375ZM6.64608 10.25L9.45921 28.1875H26.9636L29.7767 10.25H6.64608ZM10.7126 30.75C9.57612 30.75 8.4862 31.29 7.6826 32.2511C6.879 33.2122 6.42755 34.5158 6.42755 35.875C6.42755 37.2342 6.879 38.5378 7.6826 39.4989C8.4862 40.46 9.57612 41 10.7126 41C11.849 41 12.939 40.46 13.7426 39.4989C14.5462 38.5378 14.9976 37.2342 14.9976 35.875C14.9976 34.5158 14.5462 33.2122 13.7426 32.2511C12.939 31.29 11.849 30.75 10.7126 30.75ZM25.7102 30.75C24.5737 30.75 23.4838 31.29 22.6802 32.2511C21.8766 33.2122 21.4252 34.5158 21.4252 35.875C21.4252 37.2342 21.8766 38.5378 22.6802 39.4989C23.4838 40.46 24.5737 41 25.7102 41C26.8466 41 27.9366 40.46 28.7402 39.4989C29.5438 38.5378 29.9952 37.2342 29.9952 35.875C29.9952 34.5158 29.5438 33.2122 28.7402 32.2511C27.9366 31.29 26.8466 30.75 25.7102 30.75ZM10.7126 33.3125C11.2808 33.3125 11.8258 33.5825 12.2276 34.063C12.6294 34.5436 12.8551 35.1954 12.8551 35.875C12.8551 36.5546 12.6294 37.2064 12.2276 37.687C11.8258 38.1675 11.2808 38.4375 10.7126 38.4375C10.1443 38.4375 9.59939 38.1675 9.19759 37.687C8.79579 37.2064 8.57006 36.5546 8.57006 35.875C8.57006 35.1954 8.79579 34.5436 9.19759 34.063C9.59939 33.5825 10.1443 33.3125 10.7126 33.3125ZM25.7102 33.3125C26.2784 33.3125 26.8234 33.5825 27.2252 34.063C27.627 34.5436 27.8527 35.1954 27.8527 35.875C27.8527 36.5546 27.627 37.2064 27.2252 37.687C26.8234 38.1675 26.2784 38.4375 25.7102 38.4375C25.142 38.4375 24.597 38.1675 24.1952 37.687C23.7934 37.2064 23.5677 36.5546 23.5677 35.875C23.5677 35.1954 23.7934 34.5436 24.1952 34.063C24.597 33.5825 25.142 33.3125 25.7102 33.3125Z" fill="#0336A5"/>
<path d="M120.86 20.5C122.565 20.5 124.2 19.6901 125.405 18.2484C126.61 16.8067 127.288 14.8514 127.288 12.8125C127.288 10.7736 126.61 8.8183 125.405 7.37662C124.2 5.93493 122.565 5.125 120.86 5.125C119.155 5.125 117.52 5.93493 116.315 7.37662C115.11 8.8183 114.432 10.7736 114.432 12.8125C114.432 14.8514 115.11 16.8067 116.315 18.2484C117.52 19.6901 119.155 20.5 120.86 20.5ZM125.145 12.8125C125.145 14.1717 124.694 15.4753 123.89 16.4364C123.086 17.3975 121.996 17.9375 120.86 17.9375C119.724 17.9375 118.634 17.3975 117.83 16.4364C117.026 15.4753 116.575 14.1717 116.575 12.8125C116.575 11.4533 117.026 10.1497 117.83 9.18858C118.634 8.22745 119.724 7.6875 120.86 7.6875C121.996 7.6875 123.086 8.22745 123.89 9.18858C124.694 10.1497 125.145 11.4533 125.145 12.8125ZM133.715 33.3125C133.715 35.875 131.573 35.875 131.573 35.875H110.147C110.147 35.875 108.005 35.875 108.005 33.3125C108.005 30.75 110.147 23.0625 120.86 23.0625C131.573 23.0625 133.715 30.75 133.715 33.3125ZM131.573 33.3022C131.57 32.6719 131.243 30.7756 129.79 29.0382C128.393 27.3675 125.764 25.625 120.86 25.625C115.954 25.625 113.327 27.3675 111.93 29.0382C110.477 30.7756 110.152 32.6719 110.147 33.3022H131.573Z" fill="#0336A5"/>
<path d="M68.5605 41L68.5605 -9.53674e-07" stroke="#0336A5"/>
</svg>
