<svg width="22" height="22" viewBox="0 0 22 22" fill="none" xmlns="http://www.w3.org/2000/svg">
<path d="M10.1626 5.41139V9.80815H5.76588V11.8374H10.1626V16.2342H12.1919V11.8374H16.5887V9.80815H12.1919V5.41139H10.1626Z" fill="black"/>
<path fill-rule="evenodd" clip-rule="evenodd" d="M22.0001 10.8228C22.0001 16.8 17.1545 21.6456 11.1773 21.6456C5.20002 21.6456 0.354492 16.8 0.354492 10.8228C0.354492 4.84553 5.20002 0 11.1773 0C17.1545 0 22.0001 4.84553 22.0001 10.8228ZM19.9708 10.8228C19.9708 15.6793 16.0338 19.6163 11.1773 19.6163C6.32075 19.6163 2.38376 15.6793 2.38376 10.8228C2.38376 5.96626 6.32075 2.02927 11.1773 2.02927C16.0338 2.02927 19.9708 5.96626 19.9708 10.8228Z" fill="black"/>
</svg>
