<svg width="22" height="22" viewBox="0 0 22 22" fill="none" xmlns="http://www.w3.org/2000/svg">
<path d="M16.2342 9.80815H5.41139V11.8374H16.2342V9.80815Z" fill="black"/>
<path fill-rule="evenodd" clip-rule="evenodd" d="M21.6456 10.8228C21.6456 16.8 16.8 21.6456 10.8228 21.6456C4.84553 21.6456 0 16.8 0 10.8228C0 4.84553 4.84553 0 10.8228 0C16.8 0 21.6456 4.84553 21.6456 10.8228ZM19.6163 10.8228C19.6163 15.6793 15.6793 19.6163 10.8228 19.6163C5.96626 19.6163 2.02927 15.6793 2.02927 10.8228C2.02927 5.96626 5.96626 2.02927 10.8228 2.02927C15.6793 2.02927 19.6163 5.96626 19.6163 10.8228Z" fill="black"/>
</svg>
