<svg width="52" height="55" viewBox="0 0 52 55" fill="none" xmlns="http://www.w3.org/2000/svg">
<path d="M51.25 27.7437C51.25 42.403 39.95 54.2437 26.0625 54.2437C12.175 54.2437 0.875 42.403 0.875 27.7437C0.875 13.0843 12.175 1.24365 26.0625 1.24365C39.95 1.24365 51.25 13.0843 51.25 27.7437Z" stroke="black"/>
<path d="M22.0836 37.0259C30.1618 37.0259 34.5808 29.9904 34.5808 23.8999C34.5808 23.7031 34.5809 23.5034 34.5728 23.3065C35.4332 22.6519 36.1757 21.8414 36.7656 20.9131C35.962 21.2855 35.1103 21.531 34.2383 21.6415C35.1569 21.0644 35.8448 20.1565 36.1743 19.0863C35.3113 19.6237 34.3668 20.0009 33.3821 20.2015C32.7201 19.4604 31.8441 18.9695 30.8897 18.8048C29.9354 18.64 28.956 18.8106 28.1032 19.2902C27.2505 19.7697 26.572 20.5314 26.1728 21.4574C25.7736 22.3833 25.6761 23.4217 25.8953 24.4118C24.149 24.3198 22.4406 23.8429 20.8809 23.0122C19.3212 22.1815 17.9451 21.0155 16.8418 19.5898C16.2816 20.6066 16.1107 21.8094 16.3637 22.9539C16.6166 24.0984 17.2745 25.0988 18.2037 25.752C17.5074 25.7271 16.8264 25.5306 16.2156 25.1782V25.2415C16.2168 26.3067 16.5679 27.3388 17.2095 28.1634C17.8511 28.9879 18.7439 29.5543 19.737 29.7668C19.36 29.876 18.9706 29.9304 18.5797 29.9285C18.3041 29.9294 18.029 29.9026 17.7582 29.8484C18.0389 30.7653 18.5854 31.567 19.3212 32.1412C20.057 32.7154 20.9452 33.0333 21.8615 33.0504C20.305 34.3354 18.3822 35.0324 16.4029 35.029C16.0542 35.0306 15.7057 35.0094 15.3594 34.9657C17.3682 36.3119 19.7012 37.0266 22.0836 37.0259Z" fill="#090909"/>
</svg>
