<svg width="23" height="23" viewBox="0 0 23 23" fill="none" xmlns="http://www.w3.org/2000/svg">
<rect width="21.4062" height="22.5" transform="translate(0.984375 0.493652)" fill="#090909"/>
<path d="M11.6878 2.36853C14.1112 2.36853 14.4136 2.37791 15.3643 2.42478C16.3143 2.47166 16.9609 2.62822 17.5299 2.86072C18.1186 3.09884 18.6145 3.42134 19.1104 3.94166C19.564 4.41031 19.9149 4.97721 20.1388 5.60291C20.3591 6.20009 20.509 6.88072 20.5536 7.87916C20.5955 8.87853 20.6071 9.19634 20.6071 11.7435C20.6071 14.2907 20.5982 14.6085 20.5536 15.6079C20.509 16.6063 20.3591 17.286 20.1388 17.8842C19.9156 18.5102 19.5645 19.0772 19.1104 19.5454C18.6644 20.022 18.1251 20.3908 17.5299 20.6263C16.9618 20.8579 16.3143 21.0154 15.3643 21.0623C14.4136 21.1063 14.1112 21.1185 11.6878 21.1185C9.26446 21.1185 8.9621 21.1092 8.0113 21.0623C7.0614 21.0154 6.41475 20.8579 5.8457 20.6263C5.25019 20.3915 4.71075 20.0225 4.26521 19.5454C3.81158 19.0768 3.46063 18.5099 3.23682 17.8842C3.01562 17.287 2.86667 16.6063 2.82207 15.6079C2.78015 14.6085 2.76855 14.2907 2.76855 11.7435C2.76855 9.19634 2.77747 8.87853 2.82207 7.87916C2.86667 6.87978 3.01562 6.20103 3.23682 5.60291C3.46001 4.97682 3.81104 4.40977 4.26521 3.94166C4.71088 3.46468 5.25028 3.09578 5.8457 2.86072C6.41475 2.62822 7.06051 2.47166 8.0113 2.42478C8.9621 2.38072 9.26446 2.36853 11.6878 2.36853ZM11.6878 7.05603C10.5051 7.05603 9.37073 7.54989 8.53439 8.42897C7.69804 9.30804 7.22819 10.5003 7.22819 11.7435C7.22819 12.9867 7.69804 14.179 8.53439 15.0581C9.37073 15.9372 10.5051 16.431 11.6878 16.431C12.8706 16.431 14.0049 15.9372 14.8413 15.0581C15.6776 14.179 16.1475 12.9867 16.1475 11.7435C16.1475 10.5003 15.6776 9.30804 14.8413 8.42897C14.0049 7.54989 12.8706 7.05603 11.6878 7.05603ZM17.4854 6.82166C17.4854 6.51085 17.3679 6.21278 17.1588 5.99301C16.9497 5.77325 16.6661 5.64978 16.3704 5.64978C16.0747 5.64978 15.7912 5.77325 15.5821 5.99301C15.373 6.21278 15.2555 6.51085 15.2555 6.82166C15.2555 7.13246 15.373 7.43053 15.5821 7.6503C15.7912 7.87007 16.0747 7.99353 16.3704 7.99353C16.6661 7.99353 16.9497 7.87007 17.1588 7.6503C17.3679 7.43053 17.4854 7.13246 17.4854 6.82166ZM11.6878 8.93103C12.3975 8.93103 13.0781 9.22735 13.5799 9.75479C14.0817 10.2822 14.3636 10.9976 14.3636 11.7435C14.3636 12.4895 14.0817 13.2048 13.5799 13.7323C13.0781 14.2597 12.3975 14.556 11.6878 14.556C10.9782 14.556 10.2976 14.2597 9.79576 13.7323C9.29396 13.2048 9.01204 12.4895 9.01204 11.7435C9.01204 10.9976 9.29396 10.2822 9.79576 9.75479C10.2976 9.22735 10.9782 8.93103 11.6878 8.93103Z" fill="#FFFEFE"/>
</svg>
