<svg width="23" height="23" viewBox="0 0 23 23" fill="none" xmlns="http://www.w3.org/2000/svg">
<rect width="21.4062" height="22.5" transform="translate(0.984375 0.25)" fill="#090909"/>
<path d="M11.6878 2.125C14.1112 2.125 14.4136 2.13437 15.3643 2.18125C16.3143 2.22812 16.9609 2.38469 17.5299 2.61719C18.1186 2.85531 18.6145 3.17781 19.1104 3.69813C19.564 4.16678 19.9149 4.73368 20.1388 5.35937C20.3591 5.95656 20.509 6.63719 20.5536 7.63562C20.5955 8.635 20.6071 8.95281 20.6071 11.5C20.6071 14.0472 20.5982 14.365 20.5536 15.3644C20.509 16.3628 20.3591 17.0425 20.1388 17.6406C19.9156 18.2667 19.5645 18.8337 19.1104 19.3019C18.6644 19.7784 18.1251 20.1473 17.5299 20.3828C16.9618 20.6144 16.3143 20.7719 15.3643 20.8188C14.4136 20.8628 14.1112 20.875 11.6878 20.875C9.26446 20.875 8.9621 20.8656 8.0113 20.8188C7.0614 20.7719 6.41475 20.6144 5.8457 20.3828C5.25019 20.1479 4.71075 19.779 4.26521 19.3019C3.81158 18.8333 3.46063 18.2664 3.23682 17.6406C3.01562 17.0434 2.86667 16.3628 2.82207 15.3644C2.78015 14.365 2.76855 14.0472 2.76855 11.5C2.76855 8.95281 2.77747 8.635 2.82207 7.63562C2.86667 6.63625 3.01562 5.9575 3.23682 5.35937C3.46001 4.73329 3.81104 4.16624 4.26521 3.69813C4.71088 3.22115 5.25028 2.85225 5.8457 2.61719C6.41475 2.38469 7.06051 2.22812 8.0113 2.18125C8.9621 2.13719 9.26446 2.125 11.6878 2.125ZM11.6878 6.8125C10.5051 6.8125 9.37073 7.30636 8.53439 8.18544C7.69804 9.06451 7.22819 10.2568 7.22819 11.5C7.22819 12.7432 7.69804 13.9355 8.53439 14.8146C9.37073 15.6936 10.5051 16.1875 11.6878 16.1875C12.8706 16.1875 14.0049 15.6936 14.8413 14.8146C15.6776 13.9355 16.1475 12.7432 16.1475 11.5C16.1475 10.2568 15.6776 9.06451 14.8413 8.18544C14.0049 7.30636 12.8706 6.8125 11.6878 6.8125ZM17.4854 6.57812C17.4854 6.26732 17.3679 5.96925 17.1588 5.74948C16.9497 5.52972 16.6661 5.40625 16.3704 5.40625C16.0747 5.40625 15.7912 5.52972 15.5821 5.74948C15.373 5.96925 15.2555 6.26732 15.2555 6.57812C15.2555 6.88893 15.373 7.187 15.5821 7.40677C15.7912 7.62653 16.0747 7.75 16.3704 7.75C16.6661 7.75 16.9497 7.62653 17.1588 7.40677C17.3679 7.187 17.4854 6.88893 17.4854 6.57812ZM11.6878 8.6875C12.3975 8.6875 13.0781 8.98382 13.5799 9.51126C14.0817 10.0387 14.3636 10.7541 14.3636 11.5C14.3636 12.2459 14.0817 12.9613 13.5799 13.4887C13.0781 14.0162 12.3975 14.3125 11.6878 14.3125C10.9782 14.3125 10.2976 14.0162 9.79576 13.4887C9.29396 12.9613 9.01204 12.2459 9.01204 11.5C9.01204 10.7541 9.29396 10.0387 9.79576 9.51126C10.2976 8.98382 10.9782 8.6875 11.6878 8.6875Z" fill="#FFFEFE"/>
</svg>
