<svg width="115" height="130" viewBox="0 0 115 130" fill="none" xmlns="http://www.w3.org/2000/svg">
<path d="M57.5001 64.9982C65.0817 64.9982 72.493 63.0921 78.7969 59.5211C85.1008 55.9501 90.0141 50.8744 92.9154 44.936C95.8168 38.9975 96.5759 32.4631 95.0968 26.1588C93.6177 19.8546 89.9668 14.0639 84.6058 9.51878C79.2448 4.9737 72.4145 1.87846 64.9785 0.624475C57.5426 -0.629509 49.835 0.0140815 42.8305 2.47386C35.826 4.93364 29.8392 9.09913 25.627 14.4436C21.4149 19.788 19.1667 26.0714 19.1667 32.4991C19.1769 41.1158 23.2188 49.377 30.4055 55.4699C37.5922 61.5628 47.3365 64.9896 57.5001 64.9982ZM57.5001 10.833C62.5545 10.833 67.4954 12.1037 71.698 14.4844C75.9005 16.8651 79.1761 20.2489 81.1103 24.2079C83.0446 28.1668 83.5506 32.5231 82.5646 36.7259C81.5785 40.9287 79.1446 44.7893 75.5706 47.8193C71.9966 50.8494 67.443 52.9129 62.4857 53.7489C57.5284 54.5848 52.39 54.1558 47.7204 52.5159C43.0507 50.8761 39.0595 48.0991 36.2514 44.5361C33.4433 40.9732 31.9445 36.7842 31.9445 32.4991C31.9445 26.7529 34.6369 21.2421 39.4295 17.1789C44.2221 13.1157 50.7223 10.833 57.5001 10.833Z" fill="#051F4F"/>
<path d="M57.5 75.8349C42.2552 75.8492 27.6397 80.9898 16.86 90.1288C6.08036 99.2679 0.0169105 111.659 0 124.583C0 126.02 0.673113 127.398 1.87126 128.414C3.06941 129.429 4.69445 130 6.38889 130C8.08333 130 9.70836 129.429 10.9065 128.414C12.1047 127.398 12.7778 126.02 12.7778 124.583C12.7778 114.528 17.4896 104.884 25.8766 97.7731C34.2637 90.6626 45.6389 86.6679 57.5 86.6679C69.3611 86.6679 80.7363 90.6626 89.1234 97.7731C97.5104 104.884 102.222 114.528 102.222 124.583C102.222 126.02 102.895 127.398 104.093 128.414C105.292 129.429 106.917 130 108.611 130C110.306 130 111.931 129.429 113.129 128.414C114.327 127.398 115 126.02 115 124.583C114.983 111.659 108.92 99.2679 98.14 90.1288C87.3603 80.9898 72.7448 75.8492 57.5 75.8349Z" fill="#051F4F"/>
</svg>
