<svg width="60" height="41" viewBox="0 0 60 41" fill="none" xmlns="http://www.w3.org/2000/svg">
<path d="M47.6038 22.716C47.5836 22.6098 47.5562 22.4688 47.5232 22.2912C47.2852 21.0131 46.7139 17.9662 46.1059 14.7326V14.7289C45.7068 12.6068 45.2911 10.4003 44.9413 8.56195C44.7674 7.64274 44.6099 6.81328 44.478 6.13219C44.3462 5.45285 44.2418 4.92 44.1759 4.58496C44.0331 3.88184 43.7384 3.23543 43.3373 2.67328C42.7404 1.82731 41.9054 1.16262 40.9533 0.706758C40.003 0.250781 38.9263 0 37.8111 0C37.1318 0 36.4378 0.0933984 35.753 0.292969C35.0718 0.494414 34.3979 0.803789 33.7608 1.22684C32.9551 1.7652 32.2117 2.04352 31.5708 2.19363C31.2521 2.26875 30.9555 2.31082 30.6938 2.33648C30.4301 2.35852 30.1993 2.36215 29.9998 2.36215C29.8093 2.36215 29.6427 2.36953 29.4834 2.36953C29.3149 2.36953 29.1575 2.36215 28.9744 2.34023C28.7016 2.3073 28.3738 2.23406 27.927 2.06555C27.4784 1.89527 26.9126 1.62609 26.1911 1.19766C24.8946 0.428555 23.4847 0.0807425 22.1407 0.0807425C21.4009 0.0807425 20.6795 0.185157 20.002 0.384727C18.9839 0.685079 18.0574 1.19777 17.3214 1.90816C16.9515 2.26336 16.6329 2.66988 16.3765 3.11672C16.122 3.56719 15.9315 4.0616 15.8271 4.5852C15.7575 4.92023 15.6532 5.45309 15.5231 6.13242C15.1276 8.17406 14.4904 11.5432 13.8935 14.7292C13.2855 17.9665 12.7143 21.0134 12.4762 22.2914C12.4433 22.4691 12.4158 22.61 12.3956 22.7162H0L0.725156 24.1938C0.761836 24.2652 1.12066 24.9738 2.01422 25.9937C3.35637 27.5245 5.9107 29.7511 10.3528 31.5821C11.62 32.1059 13.0426 32.5929 14.632 33.0287V33.5726L19.5008 39.2031C19.5008 39.2031 25.1295 40.2669 25.5873 40.1149C26.0452 39.9629 30 36.0057 30 36.0057C30 36.0057 33.9551 39.9627 34.4128 40.1147C34.8688 40.2667 40.4993 39.2029 40.4993 39.2029L45.37 33.5723V33.0285C50.6708 31.5783 54.0949 29.5001 56.2134 27.7147C58.44 25.8416 59.2219 24.3016 59.2731 24.1936L60 22.716H47.6038ZM15.9082 15.1098C16.3073 12.9858 16.7249 10.7811 17.0728 8.94469C17.2486 8.02547 17.4061 7.19965 17.5361 6.52219C17.6679 5.84473 17.7704 5.31363 17.8345 4.99324V4.99137C17.9188 4.58121 18.0854 4.20949 18.3271 3.86895C18.6878 3.35812 19.2225 2.92231 19.8853 2.61469C20.5445 2.30707 21.3245 2.13129 22.1412 2.13129C23.1336 2.13129 24.1754 2.3877 25.146 2.96262C26.2098 3.5925 27.0484 3.96234 27.7553 4.17117C28.1105 4.27559 28.4291 4.33969 28.7184 4.37625C29.0078 4.41281 29.2678 4.4202 29.4838 4.4202C29.6889 4.4202 29.861 4.41281 30.0001 4.41469C30.2345 4.41469 30.533 4.40918 30.8771 4.37625C31.3935 4.3323 32.0179 4.22789 32.7009 4.00641C33.3875 3.78481 34.1346 3.44613 34.9018 2.93344C35.3614 2.62582 35.843 2.40609 36.3319 2.26324C36.8227 2.11863 37.3207 2.05078 37.8114 2.05078C38.3479 2.05078 38.8734 2.13141 39.3641 2.28152C40.1002 2.50676 40.7521 2.88574 41.2372 3.35824C41.4807 3.59625 41.6822 3.85266 41.8359 4.12547C41.9916 4.39828 42.1032 4.68762 42.1656 4.9916V4.99348C42.2297 5.31387 42.3341 5.84496 42.4641 6.52242C42.8559 8.55492 43.4913 11.9241 44.0919 15.11C44.1725 15.5312 44.2494 15.9486 44.3263 16.3607H15.6739C15.7507 15.9484 15.8295 15.531 15.9082 15.1098ZM56.1071 25.0085C54.8126 26.3708 52.4268 28.3044 48.294 29.9139C44.1613 31.5197 38.2781 32.7977 30 32.7977C24.2211 32.7977 19.6106 32.1751 15.9466 31.2541C10.4516 29.8698 7.08984 27.8154 5.1068 26.1473C4.50809 25.6419 4.03746 25.1732 3.66937 24.7668H30H56.3306C56.261 24.8455 56.1859 24.926 56.1071 25.0085Z" fill="#A8D3F2"/>
</svg>
