<svg width="23" height="23" viewBox="0 0 23 23" fill="none" xmlns="http://www.w3.org/2000/svg">
<rect width="21.4062" height="22.5" transform="translate(0.984375 0.25)" fill="#090909"/>
<path d="M11.6878 2.12494C14.1112 2.12494 14.4136 2.13431 15.3643 2.18119C16.3143 2.22806 16.9609 2.38463 17.5299 2.61713C18.1186 2.85525 18.6145 3.17775 19.1104 3.69806C19.564 4.16672 19.9149 4.73362 20.1388 5.35931C20.3591 5.9565 20.509 6.63713 20.5536 7.63556C20.5955 8.63494 20.6071 8.95275 20.6071 11.4999C20.6071 14.0471 20.5982 14.3649 20.5536 15.3643C20.509 16.3628 20.3591 17.0424 20.1388 17.6406C19.9156 18.2666 19.5645 18.8336 19.1104 19.3018C18.6644 19.7784 18.1251 20.1472 17.5299 20.3828C16.9618 20.6143 16.3143 20.7718 15.3643 20.8187C14.4136 20.8628 14.1112 20.8749 11.6878 20.8749C9.26446 20.8749 8.9621 20.8656 8.0113 20.8187C7.0614 20.7718 6.41475 20.6143 5.8457 20.3828C5.25019 20.1479 4.71075 19.7789 4.26521 19.3018C3.81158 18.8332 3.46063 18.2663 3.23682 17.6406C3.01562 17.0434 2.86667 16.3628 2.82207 15.3643C2.78015 14.3649 2.76855 14.0471 2.76855 11.4999C2.76855 8.95275 2.77747 8.63494 2.82207 7.63556C2.86667 6.63619 3.01562 5.95744 3.23682 5.35931C3.46001 4.73323 3.81104 4.16618 4.26521 3.69806C4.71088 3.22109 5.25028 2.85219 5.8457 2.61713C6.41475 2.38463 7.06051 2.22806 8.0113 2.18119C8.9621 2.13713 9.26446 2.12494 11.6878 2.12494ZM11.6878 6.81244C10.5051 6.81244 9.37073 7.3063 8.53439 8.18538C7.69804 9.06445 7.22819 10.2567 7.22819 11.4999C7.22819 12.7431 7.69804 13.9354 8.53439 14.8145C9.37073 15.6936 10.5051 16.1874 11.6878 16.1874C12.8706 16.1874 14.0049 15.6936 14.8413 14.8145C15.6776 13.9354 16.1475 12.7431 16.1475 11.4999C16.1475 10.2567 15.6776 9.06445 14.8413 8.18538C14.0049 7.3063 12.8706 6.81244 11.6878 6.81244ZM17.4854 6.57806C17.4854 6.26726 17.3679 5.96919 17.1588 5.74942C16.9497 5.52965 16.6661 5.40619 16.3704 5.40619C16.0747 5.40619 15.7912 5.52965 15.5821 5.74942C15.373 5.96919 15.2555 6.26726 15.2555 6.57806C15.2555 6.88886 15.373 7.18694 15.5821 7.4067C15.7912 7.62647 16.0747 7.74994 16.3704 7.74994C16.6661 7.74994 16.9497 7.62647 17.1588 7.4067C17.3679 7.18694 17.4854 6.88886 17.4854 6.57806ZM11.6878 8.68744C12.3975 8.68744 13.0781 8.98375 13.5799 9.5112C14.0817 10.0386 14.3636 10.754 14.3636 11.4999C14.3636 12.2459 14.0817 12.9612 13.5799 13.4887C13.0781 14.0161 12.3975 14.3124 11.6878 14.3124C10.9782 14.3124 10.2976 14.0161 9.79576 13.4887C9.29396 12.9612 9.01204 12.2459 9.01204 11.4999C9.01204 10.754 9.29396 10.0386 9.79576 9.5112C10.2976 8.98375 10.9782 8.68744 11.6878 8.68744Z" fill="#FFFEFE"/>
</svg>
