<svg width="40" height="40" viewBox="0 0 40 40" fill="none" xmlns="http://www.w3.org/2000/svg">
<g clip-path="url(#clip0_419_22043)">
<path d="M9.1352 3.31988C8.98762 3.13004 8.80133 2.97376 8.58871 2.86145C8.37609 2.74913 8.142 2.68333 7.902 2.66844C7.66199 2.65354 7.42157 2.68988 7.19669 2.77504C6.97181 2.86021 6.76763 2.99224 6.5977 3.16238L4.0127 5.74988C2.8052 6.95988 2.3602 8.67238 2.8877 10.1749C5.07705 16.3939 8.63844 22.0401 13.3077 26.6949C17.9625 31.3641 23.6088 34.9255 29.8277 37.1149C31.3302 37.6424 33.0427 37.1974 34.2527 35.9899L36.8377 33.4049C37.0078 33.235 37.1399 33.0308 37.225 32.8059C37.3102 32.581 37.3465 32.3406 37.3316 32.1006C37.3167 31.8606 37.251 31.6265 37.1386 31.4139C37.0263 31.2013 36.87 31.015 36.6802 30.8674L30.9127 26.3824C30.7099 26.2251 30.474 26.1159 30.2228 26.063C29.9716 26.0102 29.7117 26.0151 29.4627 26.0774L23.9877 27.4449C23.2569 27.6275 22.4913 27.6178 21.7653 27.4168C21.0394 27.2157 20.3779 26.83 19.8452 26.2974L13.7052 20.1549C13.1721 19.6225 12.786 18.9611 12.5845 18.2351C12.383 17.5092 12.3729 16.7434 12.5552 16.0124L13.9252 10.5374C13.9875 10.2884 13.9924 10.0285 13.9395 9.77729C13.8867 9.52611 13.7775 9.29021 13.6202 9.08738L9.1352 3.31988ZM4.7102 1.27738C5.14769 0.839757 5.67327 0.500209 6.25205 0.281286C6.83083 0.0623632 7.44956 -0.0309251 8.06715 0.0076156C8.68475 0.0461563 9.28708 0.215644 9.83415 0.504825C10.3812 0.794005 10.8605 1.19626 11.2402 1.68488L15.7252 7.44988C16.5477 8.50738 16.8377 9.88488 16.5127 11.1849L15.1452 16.6599C15.0745 16.9435 15.0783 17.2405 15.1563 17.5222C15.2343 17.8038 15.3837 18.0605 15.5902 18.2674L21.7327 24.4099C21.9398 24.6168 22.1969 24.7665 22.4791 24.8445C22.7612 24.9225 23.0588 24.926 23.3427 24.8549L28.8152 23.4874C29.4567 23.327 30.1263 23.3145 30.7734 23.4509C31.4205 23.5874 32.028 23.8691 32.5502 24.2749L38.3152 28.7599C40.3877 30.3724 40.5777 33.4349 38.7227 35.2874L36.1377 37.8724C34.2877 39.7224 31.5227 40.5349 28.9452 39.6274C22.3482 37.3062 16.3584 33.5295 11.4202 28.5774C6.46842 23.6399 2.69172 17.651 0.370201 11.0549C-0.534799 8.47988 0.277701 5.71238 2.1277 3.86238L4.7127 1.27738H4.7102ZM27.5002 1.24988C27.5002 0.918362 27.6319 0.60042 27.8663 0.365999C28.1007 0.131579 28.4187 -0.000117053 28.7502 -0.000117053H38.7502C39.0817 -0.000117053 39.3997 0.131579 39.6341 0.365999C39.8685 0.60042 40.0002 0.918362 40.0002 1.24988V11.2499C40.0002 11.5814 39.8685 11.8993 39.6341 12.1338C39.3997 12.3682 39.0817 12.4999 38.7502 12.4999C38.4187 12.4999 38.1007 12.3682 37.8663 12.1338C37.6319 11.8993 37.5002 11.5814 37.5002 11.2499V4.26738L27.1352 14.6349C26.9005 14.8696 26.5821 15.0015 26.2502 15.0015C25.9183 15.0015 25.5999 14.8696 25.3652 14.6349C25.1305 14.4002 24.9986 14.0818 24.9986 13.7499C24.9986 13.4179 25.1305 13.0996 25.3652 12.8649L35.7327 2.49988H28.7502C28.4187 2.49988 28.1007 2.36819 27.8663 2.13377C27.6319 1.89935 27.5002 1.5814 27.5002 1.24988Z" fill="#D1EEFF"/>
</g>
<defs>
<clipPath id="clip0_419_22043">
<rect width="40" height="40" fill="white"/>
</clipPath>
</defs>
</svg>
