<svg width="23" height="23" viewBox="0 0 23 23" fill="none" xmlns="http://www.w3.org/2000/svg">
<rect width="21.4062" height="22.5" transform="translate(0.984375 0.25)" fill="#090909"/>
<path d="M11.6873 2.12491C14.1107 2.12491 14.4131 2.13428 15.3639 2.18116C16.3138 2.22803 16.9604 2.3846 17.5295 2.6171C18.1181 2.85522 18.614 3.17772 19.11 3.69803C19.5635 4.16669 19.9144 4.73359 20.1383 5.35928C20.3587 5.95647 20.5085 6.6371 20.5531 7.63553C20.595 8.63491 20.6066 8.95272 20.6066 11.4999C20.6066 14.0471 20.5977 14.3649 20.5531 15.3643C20.5085 16.3627 20.3587 17.0424 20.1383 17.6405C19.9151 18.2666 19.5641 18.8336 19.11 19.3018C18.664 19.7783 18.1247 20.1472 17.5295 20.3827C16.9613 20.6143 16.3138 20.7718 15.3639 20.8187C14.4131 20.8627 14.1107 20.8749 11.6873 20.8749C9.26397 20.8749 8.96161 20.8655 8.01081 20.8187C7.06091 20.7718 6.41426 20.6143 5.84521 20.3827C5.2497 20.1479 4.71026 19.7789 4.26472 19.3018C3.81109 18.8332 3.46014 18.2663 3.23633 17.6405C3.01513 17.0433 2.86618 16.3627 2.82158 15.3643C2.77966 14.3649 2.76807 14.0471 2.76807 11.4999C2.76807 8.95272 2.77699 8.63491 2.82158 7.63553C2.86618 6.63616 3.01513 5.95741 3.23633 5.35928C3.45952 4.7332 3.81055 4.16615 4.26472 3.69803C4.71039 3.22106 5.24979 2.85215 5.84521 2.6171C6.41426 2.3846 7.06002 2.22803 8.01081 2.18116C8.96161 2.1371 9.26397 2.12491 11.6873 2.12491ZM11.6873 6.81241C10.5046 6.81241 9.37024 7.30627 8.5339 8.18535C7.69755 9.06442 7.2277 10.2567 7.2277 11.4999C7.2277 12.7431 7.69755 13.9354 8.5339 14.8145C9.37024 15.6935 10.5046 16.1874 11.6873 16.1874C12.8701 16.1874 14.0044 15.6935 14.8408 14.8145C15.6771 13.9354 16.147 12.7431 16.147 11.4999C16.147 10.2567 15.6771 9.06442 14.8408 8.18535C14.0044 7.30627 12.8701 6.81241 11.6873 6.81241ZM17.4849 6.57803C17.4849 6.26723 17.3674 5.96916 17.1583 5.74939C16.9492 5.52962 16.6656 5.40616 16.37 5.40616C16.0743 5.40616 15.7907 5.52962 15.5816 5.74939C15.3725 5.96916 15.255 6.26723 15.255 6.57803C15.255 6.88883 15.3725 7.1869 15.5816 7.40667C15.7907 7.62644 16.0743 7.74991 16.37 7.74991C16.6656 7.74991 16.9492 7.62644 17.1583 7.40667C17.3674 7.1869 17.4849 6.88883 17.4849 6.57803ZM11.6873 8.68741C12.397 8.68741 13.0776 8.98372 13.5794 9.51117C14.0812 10.0386 14.3631 10.754 14.3631 11.4999C14.3631 12.2458 14.0812 12.9612 13.5794 13.4886C13.0776 14.0161 12.397 14.3124 11.6873 14.3124C10.9777 14.3124 10.2971 14.0161 9.79527 13.4886C9.29347 12.9612 9.01156 12.2458 9.01156 11.4999C9.01156 10.754 9.29347 10.0386 9.79527 9.51117C10.2971 8.98372 10.9777 8.68741 11.6873 8.68741Z" fill="#FFFEFE"/>
</svg>
