<svg width="52" height="55" viewBox="0 0 52 55" fill="none" xmlns="http://www.w3.org/2000/svg">
<path d="M51.25 27.5C51.25 42.1593 39.95 54 26.0625 54C12.175 54 0.875 42.1593 0.875 27.5C0.875 12.8407 12.175 1 26.0625 1C39.95 1 51.25 12.8407 51.25 27.5Z" stroke="black"/>
<path d="M22.0836 36.7822C30.1618 36.7822 34.5808 29.7468 34.5808 23.6563C34.5808 23.4594 34.5809 23.2597 34.5728 23.0628C35.4332 22.4082 36.1757 21.5978 36.7656 20.6694C35.962 21.0419 35.1103 21.2873 34.2383 21.3978C35.1569 20.8208 35.8448 19.9128 36.1743 18.8427C35.3113 19.3801 34.3668 19.7573 33.3821 19.9578C32.7201 19.2168 31.8441 18.7259 30.8897 18.5611C29.9354 18.3963 28.956 18.567 28.1032 19.0465C27.2505 19.5261 26.572 20.2878 26.1728 21.2137C25.7736 22.1396 25.6761 23.1781 25.8953 24.1682C24.149 24.0761 22.4406 23.5993 20.8809 22.7686C19.3212 21.9379 17.9451 20.7718 16.8418 19.3461C16.2816 20.363 16.1107 21.5658 16.3637 22.7103C16.6166 23.8548 17.2745 24.8552 18.2037 25.5083C17.5074 25.4835 16.8264 25.2869 16.2156 24.9346V24.9978C16.2168 26.0631 16.5679 27.0952 17.2095 27.9197C17.8511 28.7442 18.7439 29.3106 19.737 29.5232C19.36 29.6323 18.9706 29.6867 18.5797 29.6849C18.3041 29.6858 18.029 29.6589 17.7582 29.6047C18.0389 30.5217 18.5854 31.3234 19.3212 31.8976C20.057 32.4718 20.9452 32.7897 21.8615 32.8068C20.305 34.0918 18.3822 34.7887 16.4029 34.7854C16.0542 34.7869 15.7057 34.7658 15.3594 34.7221C17.3682 36.0682 19.7012 36.783 22.0836 36.7822Z" fill="#090909"/>
</svg>
