<svg width="19" height="19" viewBox="0 0 19 19" fill="none" xmlns="http://www.w3.org/2000/svg">
<path d="M12.8043 10.6499C12.9494 10.2814 13.0229 9.89093 13.0215 9.49746C13.0215 8.62381 12.6565 7.78595 12.0068 7.16819C11.3571 6.55042 10.476 6.20337 9.5572 6.20337C9.1485 6.20382 8.74317 6.27375 8.36035 6.40985L9.1734 7.20696C9.29699 7.18816 9.42194 7.17853 9.5471 7.17815C10.1967 7.17686 10.8205 7.42004 11.2823 7.85459C11.744 8.28913 12.0062 8.87975 12.0115 9.49746C12.0111 9.61647 12.0009 9.73527 11.9812 9.8528L12.8043 10.6499Z" fill="#C7D2D6"/>
<path d="M17.399 9.27161C15.6971 6.28004 12.7126 4.46973 9.40987 4.46973C8.51064 4.47173 7.61746 4.6095 6.76367 4.87789L7.57672 5.65579C8.17558 5.50863 8.79134 5.43282 9.40987 5.4301C12.253 5.4301 14.8386 6.93789 16.3789 9.47809C15.8138 10.4205 15.0648 11.2517 14.172 11.927L14.8891 12.6089C15.9224 11.8163 16.7805 10.8371 17.4141 9.72778L17.5454 9.49729L17.399 9.27161Z" fill="#C7D2D6"/>
<path d="M2.5426 3.62954L4.7949 5.77118C3.37127 6.64277 2.20774 7.84836 1.41646 9.27175L1.28516 9.49744L1.41646 9.72793C3.1183 12.7195 6.10285 14.5298 9.40554 14.5298C10.6946 14.5296 11.967 14.2521 13.1274 13.7183L15.6524 16.1192L16.5361 15.3989L3.40615 2.91406L2.5426 3.62954ZM7.46635 8.31137L10.8246 11.5046C10.4451 11.728 10.0083 11.8476 9.56209 11.8504C9.23785 11.8504 8.9168 11.7894 8.61743 11.671C8.31805 11.5526 8.04626 11.379 7.81769 11.1603C7.58912 10.9417 7.40829 10.6822 7.28559 10.3968C7.16289 10.1114 7.10075 9.80575 7.10275 9.49744C7.10844 9.07802 7.23413 8.668 7.46635 8.31137ZM6.7341 7.6151C6.26164 8.24866 6.04019 9.02075 6.10897 9.79467C6.17774 10.5686 6.5323 11.2944 7.10987 11.8436C7.68744 12.3928 8.45075 12.7299 9.26465 12.7953C10.0786 12.8607 10.8905 12.6501 11.5568 12.2009L12.3648 12.9692C11.4295 13.3494 10.4228 13.5454 9.40554 13.5454C6.5624 13.5454 3.9768 12.0376 2.43655 9.49744C3.17573 8.25289 4.24027 7.21088 5.52715 6.47225L6.7341 7.6151Z" fill="#C7D2D6"/>
</svg>
